# xmcd CD database file
#
# Track frame offsets:
#	150
#	22468
#	41599
#	58544
#	78956
#	81858
#	101320
#	124042
#	140961
#	146102
#	160013
#	178669
#	195971
#	213450
#	228676
#	248905
#	265123
#	307315
#
# Disc length: 4592 seconds
#
# Revision: 0
# Processed by: cddbd v1.5PL3 Copyright (c) Steve Scherf et al.
# Submitted via: CDex 1.40Release
#
DISCID=0711ee12
DTITLE=Moya Brennan - Two Horizons
DYEAR=2003
DGENRE=Pop
TTITLE0=Show Me
TTITLE1=Bright Star
TTITLE2=Change My World
TTITLE3=Bi Liom
TTITLE4=Is It Now (Theme)
TTITLE5=Falling
TTITLE6=Tara
TTITLE7=Ancient Town
TTITLE8=Show Me (Theme)
TTITLE9=Sailing Away
TTITLE10=River
TTITLE11=Is It Now
TTITLE12=Mothers of the Desert
TTITLE13=Harpsong
TTITLE14=Two Horizons
TTITLE15=Show Me (Jakatta Mix)
TTITLE16=Show Me (Jakatta 12" Remix)
TTITLE17=DATA
EXTD=YEAR: 2003 ID3G: 13
EXTT0=
EXTT1=
EXTT2=
EXTT3=
EXTT4=
EXTT5=
EXTT6=
EXTT7=
EXTT8=
EXTT9=
EXTT10=
EXTT11=
EXTT12=
EXTT13=
EXTT14=
EXTT15=
EXTT16=
EXTT17=
PLAYORDER=
